<svg width="66" height="60" viewBox="0 0 66 60" fill="none" xmlns="http://www.w3.org/2000/svg">
<path fill-rule="evenodd" clip-rule="evenodd" d="M64.5191 23.7884L33.6522 0.729878C33.3637 0.513829 33.0129 0.397095 32.6524 0.397095C32.292 0.397095 31.9412 0.513829 31.6527 0.729878L0.785807 23.7884C0.422678 24.0637 0.181286 24.4697 0.113014 24.9203C0.0447417 25.3708 0.154966 25.8303 0.420233 26.2008C0.549354 26.3832 0.71375 26.5378 0.90369 26.6555C1.09363 26.7733 1.30529 26.8516 1.52608 26.8861C1.74687 26.9206 1.97231 26.9104 2.18912 26.8563C2.40592 26.8021 2.60968 26.7051 2.78829 26.5708L32.6547 4.2671L62.5211 26.5708C62.7007 26.7024 62.9045 26.7971 63.1209 26.8497C63.3372 26.9024 63.5619 26.9118 63.7819 26.8774C64.0019 26.843 64.213 26.7655 64.403 26.6494C64.593 26.5333 64.7582 26.3809 64.8891 26.2008C65.1543 25.8299 65.2639 25.3699 65.1948 24.9192C65.1257 24.4685 64.8833 24.0628 64.5191 23.7884ZM56.3347 26.9554C55.8812 26.9621 55.4487 27.1481 55.1317 27.4725C54.8148 27.7969 54.6391 28.2335 54.643 28.6871V56.156H41.107V41.1636C41.1328 40.0362 40.933 38.915 40.5194 37.8659C40.1059 36.8169 39.4869 35.861 38.6987 35.0546C37.9105 34.2482 36.9691 33.6074 35.9298 33.1699C34.8904 32.7324 33.7742 32.5071 32.6465 32.5071C31.5189 32.5071 30.4027 32.7324 29.3633 33.1699C28.324 33.6074 27.3826 34.2482 26.5944 35.0546C25.8062 35.861 25.1871 36.8169 24.7736 37.8659C24.36 38.915 24.1603 40.0362 24.1861 41.1636V56.156H10.6515V28.6871C10.6582 28.4606 10.6194 28.2352 10.5373 28.0241C10.4553 27.8129 10.3317 27.6202 10.1739 27.4577C10.0161 27.2951 9.82732 27.166 9.61865 27.0777C9.40999 26.9895 9.1857 26.9439 8.95914 26.9439C8.73258 26.9439 8.50829 26.9895 8.29963 27.0777C8.09096 27.166 7.90217 27.2951 7.74435 27.4577C7.58654 27.6202 7.46299 27.8129 7.38095 28.0241C7.29891 28.2352 7.26007 28.4606 7.26677 28.6871V57.8727C7.26384 58.0976 7.30532 58.321 7.3889 58.5299C7.47247 58.7388 7.59645 58.9293 7.75375 59.0902C7.91105 59.251 8.09862 59.3791 8.30559 59.4674C8.51256 59.5556 8.73487 59.6022 8.95986 59.6043H25.8778C26.3091 59.6013 26.7231 59.4346 27.0361 59.1378C27.3491 58.8411 27.5376 58.4365 27.5635 58.006C27.5666 57.9616 27.5666 57.917 27.5635 57.8727V41.1636C27.5471 40.4866 27.6664 39.8132 27.9141 39.183C28.1619 38.5528 28.5332 37.9785 29.0062 37.4939C29.4792 37.0094 30.0443 36.6243 30.6684 36.3613C31.2924 36.0984 31.9627 35.963 32.6399 35.963C33.317 35.963 33.9873 36.0984 34.6114 36.3613C35.2354 36.6243 35.8006 37.0094 36.2736 37.4939C36.7466 37.9785 37.1179 38.5528 37.3657 39.183C37.6134 39.8132 37.7326 40.4866 37.7163 41.1636V57.8727C37.7133 57.917 37.7133 57.9616 37.7163 58.006C37.7421 58.4365 37.9307 58.8411 38.2437 59.1378C38.5567 59.4346 38.9707 59.6013 39.402 59.6043H56.3347C56.5596 59.6022 56.7819 59.5556 56.9888 59.4674C57.1957 59.3791 57.3831 59.2509 57.5403 59.09C57.6974 58.9291 57.8213 58.7388 57.9047 58.5299C57.9882 58.321 58.0295 58.0976 58.0263 57.8727V28.6871C58.0299 28.2337 57.8541 27.7972 57.5372 27.4729C57.2203 27.1485 56.7881 26.9625 56.3347 26.9554Z" fill="#542FDF"/>
</svg>
