<svg width="60" height="61" viewBox="0 0 60 61" fill="none" xmlns="http://www.w3.org/2000/svg">
<path fill-rule="evenodd" clip-rule="evenodd" d="M20 53.4683V53.4683C22.77 53.4683 25.0175 51.2233 25.02 48.4533L25.03 38.3433C27.44 37.2883 29.6175 35.5233 31.0575 32.7583C33.3425 28.3733 32.905 22.8633 29.7975 19.0183C24.7225 12.7408 15.2275 12.7558 10.175 19.0633C7.08247 22.9208 6.65997 28.4333 8.96747 32.8058C10.4125 35.5458 12.585 37.3058 14.99 38.3533L14.98 48.4408C14.9775 51.2158 17.225 53.4683 20 53.4683V53.4683Z" stroke="#542FDF" stroke-width="2" stroke-linecap="round" stroke-linejoin="round"/>
<path d="M20.6824 26.8332C20.6824 26.4257 20.3524 26.0982 19.9474 26.0982C19.5399 26.1007 19.2124 26.4307 19.2124 26.8357C19.2124 27.2432 19.5424 27.5707 19.9474 27.5707C20.3524 27.5707 20.6824 27.2407 20.6824 26.8332" stroke="#542FDF" stroke-width="2" stroke-linecap="round" stroke-linejoin="round"/>
<path d="M33.1575 15.0483C33.1575 11.4133 30.2125 8.46826 26.5775 8.46826V8.46826C22.945 8.46826 20 11.4133 20 15.0483V26.0983" stroke="#542FDF" stroke-width="2" stroke-linecap="round" stroke-linejoin="round"/>
<path d="M28.495 17.6333L29.62 16.5083C31.5725 14.5558 34.7375 14.5558 36.69 16.5083L51.0325 30.8508C52.985 32.8033 52.985 35.9683 51.0325 37.9208L44.415 44.5383C42.4625 46.4908 39.2975 46.4908 37.345 44.5383L28.7125 35.9058" stroke="#542FDF" stroke-width="2" stroke-linecap="round" stroke-linejoin="round"/>
</svg>
