<svg width="31" height="30" viewBox="0 0 31 30" fill="none" xmlns="http://www.w3.org/2000/svg">
<g clip-path="url(#clip0_49_2150)">
<path fill-rule="evenodd" clip-rule="evenodd" d="M15.002 0C6.73099 0 0.00195312 6.72903 0.00195312 15C0.00195312 23.2704 6.73099 30 15.002 30C23.2723 30 30.002 23.2704 30.002 15C30.002 6.72903 23.2735 0 15.002 0ZM23.5327 13.2496V20.2342C23.5327 22.0535 22.0536 23.532 20.2356 23.532H9.76833C7.94967 23.532 6.47118 22.0535 6.47118 20.2342V13.2496V9.76698C6.47118 7.94832 7.94967 6.46983 9.76833 6.46983H20.235C22.0536 6.46983 23.5327 7.94832 23.5327 9.76698V13.2496ZM21.5588 8.80918V11.3263L18.6761 11.336L18.6665 8.44363L21.1824 8.43578L21.5588 8.43457V8.80918ZM18.0055 15C18.0055 16.6561 16.6563 18.0029 15.0014 18.0029C13.3458 18.0029 11.9978 16.6555 11.9997 14.9994C12.0003 14.3456 12.2123 13.742 12.5676 13.249C13.1144 12.4925 14.0008 11.9971 15.0032 11.9971C16.0049 11.9971 16.8919 12.4931 17.4375 13.2496C17.7916 13.7426 18.0055 14.3462 18.0055 15ZM15.002 19.6662C17.5753 19.6662 19.6682 17.572 19.6682 14.9999C19.6682 14.3812 19.5432 13.7897 19.3214 13.2495H21.8694V20.2341C21.8694 21.1368 21.1353 21.8679 20.2344 21.8679H9.76774C8.86566 21.8679 8.13276 21.1368 8.13276 20.2341V13.2495H10.6795C10.4596 13.7897 10.3363 14.3812 10.3363 14.9999C10.3363 17.572 12.4287 19.6662 15.002 19.6662Z" fill="black"/>
</g>
<defs>
<clipPath id="clip0_49_2150">
<rect width="30" height="30" fill="white" transform="translate(0.00195312)"/>
</clipPath>
</defs>
</svg>
