<svg width="30" height="30" viewBox="0 0 30 30" fill="none" xmlns="http://www.w3.org/2000/svg">
<g clip-path="url(#clip0_49_2148)">
<path d="M14.999 0C6.71602 0 -0.000976562 6.717 -0.000976562 15C-0.000976562 23.283 6.71602 30 14.999 30C23.282 30 29.999 23.283 29.999 15C29.999 6.717 23.282 0 14.999 0ZM10.6402 22.6758H6.98701V11.6851H10.6402V22.6758ZM8.81372 10.1843H8.78992C7.56403 10.1843 6.77118 9.34044 6.77118 8.28575C6.77118 7.20726 7.58829 6.38672 8.83798 6.38672C10.0877 6.38672 10.8567 7.20726 10.8805 8.28575C10.8805 9.34044 10.0877 10.1843 8.81372 10.1843ZM23.8128 22.6758H20.1601V16.796C20.1601 15.3184 19.6311 14.3106 18.3093 14.3106C17.3002 14.3106 16.6992 14.9904 16.435 15.6466C16.3384 15.8814 16.3149 16.2096 16.3149 16.5381V22.6758H12.6619C12.6619 22.6758 12.7097 12.7162 12.6619 11.6851H16.3149V13.2413C16.8003 12.4924 17.6689 11.4272 19.6071 11.4272C22.0106 11.4272 23.8128 12.998 23.8128 16.3737V22.6758Z" fill="black"/>
</g>
<defs>
<clipPath id="clip0_49_2148">
<rect width="30" height="30" fill="white" transform="translate(-0.000976562)"/>
</clipPath>
</defs>
</svg>
