<svg width="14" height="15" viewBox="0 0 14 15" fill="none" xmlns="http://www.w3.org/2000/svg">
<path d="M13.4688 6.48779H7.84375V0.862793C7.84375 0.722168 7.70312 0.581543 7.5625 0.581543H6.4375C6.26172 0.581543 6.15625 0.722168 6.15625 0.862793V6.48779H0.53125C0.355469 6.48779 0.25 6.62842 0.25 6.76904V7.89404C0.25 8.06982 0.355469 8.17529 0.53125 8.17529H6.15625V13.8003C6.15625 13.9761 6.26172 14.0815 6.4375 14.0815H7.5625C7.70312 14.0815 7.84375 13.9761 7.84375 13.8003V8.17529H13.4688C13.6094 8.17529 13.75 8.06982 13.75 7.89404V6.76904C13.75 6.62842 13.6094 6.48779 13.4688 6.48779Z" fill="#01FF5F"/>
</svg>
