<svg width="12" height="12" viewBox="0 0 12 12" fill="none" xmlns="http://www.w3.org/2000/svg">
<path d="M7.16016 6.33154L10.7812 2.74561L11.5195 2.00732C11.625 1.90186 11.625 1.72607 11.5195 1.58545L10.7461 0.812012C10.6055 0.706543 10.4297 0.706543 10.3242 0.812012L6 5.17139L1.64062 0.812012C1.53516 0.706543 1.35938 0.706543 1.21875 0.812012L0.445312 1.58545C0.339844 1.72607 0.339844 1.90186 0.445312 2.00732L4.80469 6.33154L0.445312 10.6909C0.339844 10.7964 0.339844 10.9722 0.445312 11.1128L1.21875 11.8862C1.35938 11.9917 1.53516 11.9917 1.64062 11.8862L6 7.52686L9.58594 11.1479L10.3242 11.8862C10.4297 11.9917 10.6055 11.9917 10.7461 11.8862L11.5195 11.1128C11.625 10.9722 11.625 10.7964 11.5195 10.6909L7.16016 6.33154Z" fill="#01FF5F"/>
</svg>
