<svg width="65" height="60" viewBox="0 0 65 60" fill="none" xmlns="http://www.w3.org/2000/svg">
<path fill-rule="evenodd" clip-rule="evenodd" d="M50.9418 0.197021H14.3755C13.5093 0.191758 12.6505 0.357158 11.8482 0.683821C11.046 1.01048 10.316 1.49202 9.69987 2.10086C9.08375 2.7097 8.59363 3.43395 8.25745 4.23224C7.92127 5.03054 7.74561 5.88723 7.74057 6.75341V36.6346L3.54627 32.4905C3.24526 32.1985 2.8423 32.0353 2.42291 32.0353C2.00351 32.0353 1.60064 32.1985 1.29963 32.4905C1.15177 32.6351 1.03431 32.808 0.954106 32.9986C0.873901 33.1892 0.83252 33.3937 0.83252 33.6005C0.83252 33.8073 0.873901 34.0121 0.954106 34.2027C1.03431 34.3933 1.15177 34.566 1.29963 34.7105L8.22159 41.5481C8.52387 41.8423 8.92903 42.007 9.35083 42.007C9.77263 42.007 10.1778 41.8423 10.4801 41.5481L17.402 34.7105C17.5499 34.566 17.6673 34.3933 17.7476 34.2027C17.8278 34.0121 17.8691 33.8073 17.8691 33.6005C17.8691 33.3937 17.8278 33.1892 17.7476 32.9986C17.6673 32.808 17.5499 32.6351 17.402 32.4905C17.101 32.1985 16.6981 32.0353 16.2787 32.0353C15.8593 32.0353 15.4564 32.1985 15.1554 32.4905L10.9477 36.6494V6.75341C10.9495 6.30195 11.0403 5.85531 11.2149 5.43899C11.3896 5.02267 11.6447 4.64485 11.9656 4.32727C12.2865 4.00969 12.6668 3.75851 13.0849 3.58818C13.503 3.41784 13.9506 3.33169 14.4021 3.33461H50.958C51.4094 3.33189 51.8569 3.4182 52.2748 3.58863C52.6927 3.75905 53.0729 4.01025 53.3937 4.32781C53.7144 4.64538 53.9693 5.02304 54.1439 5.43926C54.3184 5.85548 54.4091 6.30207 54.4109 6.75341V11.1046C54.4235 11.5199 54.5974 11.914 54.8956 12.2033C55.1938 12.4926 55.5931 12.6544 56.0086 12.6544C56.4241 12.6544 56.8232 12.4926 57.1215 12.2033C57.4197 11.914 57.5936 11.5199 57.6062 11.1046V6.75341C57.579 5.00432 56.8647 3.33615 55.6177 2.10935C54.3707 0.882553 52.6911 0.195643 50.9418 0.197021ZM54.8504 18.0606L47.9285 24.8981C47.7807 25.0412 47.6632 25.2126 47.583 25.402C47.5027 25.5914 47.4614 25.7952 47.4614 26.0009C47.4614 26.2066 47.5027 26.4102 47.583 26.5996C47.6632 26.789 47.7807 26.9604 47.9285 27.1035C48.076 27.2535 48.2519 27.3725 48.4459 27.4538C48.6399 27.5351 48.8481 27.5768 49.0584 27.5768C49.2688 27.5768 49.4771 27.5351 49.6711 27.4538C49.8651 27.3725 50.041 27.2535 50.1885 27.1035L54.3961 22.9594V52.8405C54.3943 53.292 54.3035 53.7387 54.1289 54.1551C53.9542 54.5714 53.6992 54.9491 53.3783 55.2667C53.0574 55.5843 52.677 55.8354 52.2589 56.0058C51.8408 56.1761 51.3932 56.2624 50.9418 56.2594H14.3755C13.9241 56.2622 13.4766 56.1758 13.0587 56.0054C12.6408 55.835 12.2606 55.5839 11.9398 55.2663C11.6191 54.9488 11.3642 54.5709 11.1896 54.1547C11.0151 53.7385 10.9244 53.2919 10.9226 52.8405V48.4894C10.91 48.0741 10.736 47.6801 10.4378 47.3908C10.1396 47.1015 9.74041 46.9397 9.3249 46.9397C8.9094 46.9397 8.51025 47.1015 8.21201 47.3908C7.91377 47.6801 7.73993 48.0741 7.72729 48.4894V52.8405C7.73233 53.7069 7.90799 54.5637 8.24426 55.3621C8.58053 56.1605 9.07076 56.8849 9.68705 57.4937C10.3033 58.1026 11.0335 58.5841 11.836 58.9107C12.6384 59.2373 13.4973 59.4025 14.3636 59.397H50.9196C51.7857 59.4023 52.6445 59.2368 53.4468 58.9101C54.249 58.5835 54.979 58.102 55.5951 57.4932C56.2113 56.8843 56.7014 56.1602 57.0376 55.3619C57.3737 54.5636 57.5494 53.7067 57.5544 52.8405V22.9594L61.7621 27.1035C61.9095 27.2513 62.0845 27.3684 62.2773 27.4484C62.47 27.5284 62.6767 27.5696 62.8854 27.5696C63.0941 27.5696 63.3007 27.5284 63.4935 27.4484C63.6863 27.3684 63.8613 27.2513 64.0087 27.1035C64.1565 26.9604 64.274 26.789 64.3543 26.5996C64.4345 26.4102 64.4759 26.2066 64.4759 26.0009C64.4759 25.7952 64.4345 25.5914 64.3543 25.402C64.274 25.2126 64.1565 25.0412 64.0087 24.8981L57.0882 18.0606C56.7861 17.7755 56.3863 17.6166 55.9708 17.6166C55.5554 17.6166 55.1556 17.7755 54.8534 18.0606H54.8504ZM32.6594 15.8998C32.4505 15.8988 32.2433 15.9391 32.0499 16.0181C31.8565 16.0972 31.6806 16.2135 31.5321 16.3606C31.3837 16.5076 31.2657 16.6825 31.1849 16.8751C31.104 17.0678 31.0619 17.2745 31.061 17.4834V19.8958H30.8537C29.3737 19.9541 27.9737 20.5831 26.9471 21.6509C25.9206 22.7186 25.3473 24.1423 25.3473 25.6235C25.3473 27.1047 25.9206 28.5284 26.9471 29.5961C27.9737 30.6639 29.3737 31.2928 30.8537 31.3511H34.4383C35.0799 31.4162 35.6745 31.7172 36.1069 32.1957C36.5393 32.6742 36.7786 33.2962 36.7786 33.9411C36.7786 34.586 36.5393 35.2078 36.1069 35.6863C35.6745 36.1648 35.0799 36.4659 34.4383 36.5311H27.9973C27.5793 36.5311 27.1784 36.6971 26.8828 36.9927C26.5872 37.2883 26.4211 37.6892 26.4211 38.1072C26.4211 38.5252 26.5872 38.9261 26.8828 39.2217C27.1784 39.5173 27.5793 39.6835 27.9973 39.6835H31.061V42.1402C31.0736 42.5555 31.2474 42.9497 31.5457 43.239C31.8439 43.5283 32.2431 43.6899 32.6586 43.6899C33.0741 43.6899 33.4733 43.5283 33.7716 43.239C34.0698 42.9497 34.2436 42.5555 34.2563 42.1402V39.6835H34.5286C36.0046 39.6071 37.3943 38.9642 38.4083 37.889C39.4223 36.8137 39.9826 35.3889 39.9725 33.9109C39.9624 32.433 39.3827 31.0158 38.354 29.9546C37.3254 28.8933 35.927 28.2697 34.4501 28.2135H30.8671C30.2255 28.1483 29.6309 27.8472 29.1985 27.3687C28.7661 26.8902 28.5268 26.2684 28.5268 25.6235C28.5268 24.9786 28.7661 24.3566 29.1985 23.8781C29.6309 23.3996 30.2255 23.0987 30.8671 23.0335H37.1911C37.6091 23.0335 38.0101 22.8673 38.3057 22.5717C38.6013 22.2761 38.7673 21.8752 38.7673 21.4572C38.7673 21.0392 38.6013 20.6383 38.3057 20.3427C38.0101 20.0471 37.6091 19.881 37.1911 19.881H34.2563V17.4686C34.2489 17.0489 34.0766 16.6491 33.7766 16.3555C33.4767 16.0619 33.0732 15.8982 32.6534 15.8998H32.6594Z" fill="#542FDF"/>
</svg>
