<svg width="54" height="54" viewBox="0 0 54 54" fill="none" xmlns="http://www.w3.org/2000/svg">
<path fill-rule="evenodd" clip-rule="evenodd" d="M45.3806 34.3587C42.5491 31.5164 39.1075 29.3563 35.3168 28.0423C38.0121 26.1929 40.0449 23.5297 41.1176 20.442C42.1903 17.3543 42.2467 14.0042 41.2786 10.8821C40.3105 7.76007 38.3687 5.02979 35.7372 3.0907C33.1057 1.15161 29.9228 0.105469 26.6541 0.105469C23.3853 0.105469 20.2024 1.15161 17.5709 3.0907C14.9395 5.02979 12.9976 7.76007 12.0295 10.8821C11.0614 14.0042 11.1178 17.3543 12.1905 20.442C13.2633 23.5297 15.296 26.1929 17.9913 28.0423C12.79 29.8514 8.28032 33.2337 5.08724 37.7204C1.89415 42.207 0.175818 47.5757 0.17041 53.0826H4.30848C4.30848 47.1562 6.66273 41.4726 10.8533 37.282C15.0439 33.0914 20.7276 30.737 26.6541 30.737C32.5805 30.737 38.2642 33.0914 42.4548 37.282C46.6454 41.4726 48.9996 47.1562 48.9996 53.0826H53.1377C53.1467 49.6038 52.4658 46.1578 51.1343 42.9439C49.8028 39.7299 47.8472 36.8119 45.3806 34.3587ZM26.6541 26.599C24.4435 26.5995 22.2825 25.9445 20.4442 24.7168C18.606 23.4891 17.1731 21.7438 16.3268 19.7017C15.4805 17.6595 15.2588 15.4123 15.6897 13.2442C16.1207 11.076 17.1849 9.08437 18.7478 7.5211C20.3107 5.95783 22.3021 4.8932 24.4701 4.46176C26.6381 4.03031 28.8854 4.25144 30.9277 5.09726C32.97 5.94307 34.7157 7.37555 35.9438 9.21351C37.172 11.0515 37.8275 13.2123 37.8275 15.4229C37.8261 18.3861 36.6485 21.2276 34.5535 23.3231C32.4584 25.4187 29.6173 26.5969 26.6541 26.599Z" fill="#542FDF"/>
</svg>
