<svg width="30" height="30" viewBox="0 0 30 30" fill="none" xmlns="http://www.w3.org/2000/svg">
<g clip-path="url(#clip0_49_2140)">
<path fill-rule="evenodd" clip-rule="evenodd" d="M15.001 0C6.71668 0 0.000976562 6.7157 0.000976562 15C0.000976562 23.2843 6.71668 30 15.001 30C23.2853 30 30.001 23.2843 30.001 15C30.001 6.7157 23.2853 0 15.001 0ZM16.6693 7.01586H17.6885V11.1689C17.6885 11.4086 17.6885 11.5329 17.7008 11.5663C17.7232 11.7247 17.8036 11.8057 17.9405 11.8057C18.1449 11.8057 18.3594 11.6474 18.5862 11.3273V7.01586H19.6082V12.6565H18.5862V12.0414C18.1793 12.5079 17.7914 12.7341 17.4185 12.7341C17.0895 12.7341 16.8624 12.6006 16.7598 12.3152C16.7034 12.1442 16.6693 11.8745 16.6693 11.4764V7.01586ZM12.8091 8.85514C12.8091 8.25207 12.9116 7.81136 13.1289 7.52624C13.4115 7.14046 13.8096 6.94772 14.319 6.94772C14.831 6.94772 15.2287 7.14046 15.5114 7.52624C15.7256 7.81105 15.8281 8.25207 15.8281 8.85514V10.8304C15.8281 11.4301 15.7256 11.8748 15.5114 12.1568C15.2287 12.5417 14.831 12.7341 14.319 12.7341C13.8096 12.7341 13.4115 12.5417 13.1289 12.1568C12.9116 11.8748 12.8091 11.4298 12.8091 10.8304V8.85514ZM10.0758 5.08726L10.8805 8.05964L11.6536 5.08726H12.7999L11.4363 9.5911V12.6568H10.3032V9.5911C10.2004 9.04788 9.97356 8.25207 9.60988 7.19632C9.48912 6.84104 9.36578 6.48521 9.24246 6.12947L9.24234 6.12911C9.12186 5.78155 9.00141 5.43407 8.88343 5.08726H10.0758ZM23.076 23.0366C22.8709 23.9263 22.1433 24.5831 21.2671 24.681C19.1915 24.9127 17.0919 24.914 15.0001 24.9127C12.9091 24.914 10.8083 24.9127 8.73335 24.681C7.85714 24.5831 7.12916 23.9266 6.92476 23.0366C6.63289 21.7694 6.63289 20.3856 6.63289 19.0806C6.63289 17.7757 6.63658 16.3921 6.92814 15.1246C7.13284 14.2346 7.86021 13.5778 8.73642 13.4802C10.8117 13.2485 12.9122 13.2473 15.0037 13.2485C17.0947 13.2473 19.1951 13.2485 21.2704 13.4802C22.1467 13.5781 22.8746 14.2346 23.08 15.1246C23.3691 16.3842 23.3691 17.7584 23.3691 19.0562V19.0806C23.3691 20.3856 23.3678 21.7694 23.076 23.0366ZM14.8065 11.0224C14.8065 11.5441 14.6484 11.8053 14.3191 11.8053C13.9895 11.8053 13.8311 11.5444 13.8311 11.0224V8.64967C13.8311 8.12793 13.9895 7.86768 14.3191 7.86768C14.6484 7.86768 14.8065 8.12763 14.8065 8.64967V11.0224ZM9.07046 16.107H7.8812V15.0527H11.4069V16.107H10.1956V22.5437H9.07046V16.107ZM16.3491 17.4994C16.6754 17.0973 17.0225 16.8942 17.3945 16.8942C17.7965 16.8942 18.0678 17.1059 18.2025 17.5245C18.2704 17.7489 18.305 18.1178 18.305 18.6463V20.8689C18.305 21.3854 18.2704 21.7571 18.2025 21.9937C18.0675 22.4093 17.7968 22.621 17.3945 22.621C17.0345 22.621 16.6877 22.4209 16.3491 22.0032V22.544H15.3379V15.0527H16.3491V17.4994ZM16.8531 21.7012C17.1453 21.7012 17.2932 21.4526 17.2932 20.9481V18.5659C17.2932 18.0626 17.1449 17.8041 16.8531 17.8041C16.687 17.8041 16.5179 17.8833 16.3488 18.0506V21.4523C16.5179 21.6217 16.687 21.7012 16.8531 21.7012ZM13.4506 21.2276C13.2263 21.5446 13.0142 21.7008 12.8111 21.7008C12.676 21.7008 12.599 21.6213 12.5744 21.4642C12.5652 21.4317 12.5652 21.3083 12.5652 21.0714V16.9619H11.5537V21.3749C11.5537 21.7693 11.5877 22.0356 11.643 22.2051C11.7446 22.488 11.9692 22.6206 12.2945 22.6206C12.6668 22.6206 13.0486 22.396 13.4506 21.935V22.5439H14.4628V16.9619H13.4506V21.2276ZM19.4046 17.4661C19.6968 17.084 20.0985 16.894 20.616 16.894C21.1236 16.894 21.5259 17.0843 21.8086 17.4655C22.0207 17.7479 22.1217 18.1843 22.1217 18.7806V19.9367H20.0985V20.9268C20.0985 21.443 20.2686 21.7008 20.616 21.7008C20.8649 21.7008 21.0103 21.5658 21.068 21.2954C21.0769 21.2404 21.0901 21.0155 21.0901 20.6104H22.1217V20.7574C22.1217 21.0836 22.1097 21.308 22.1002 21.4092C22.0664 21.6333 21.9866 21.8361 21.8639 22.0154C21.584 22.4208 21.1693 22.6206 20.6411 22.6206C20.112 22.6206 19.7091 22.43 19.4172 22.0488C19.2018 21.7692 19.0922 21.3297 19.0922 20.7365V18.7812C19.0922 18.1849 19.1901 17.7485 19.4046 17.4661ZM20.0991 19.0952H21.1107V18.5786C21.1107 18.0627 20.9413 17.8043 20.6068 17.8043C20.2689 17.8043 20.0991 18.0624 20.0991 18.5786V19.0952Z" fill="black"/>
</g>
<defs>
<clipPath id="clip0_49_2140">
<rect width="30" height="30" fill="white" transform="translate(0.000976562)"/>
</clipPath>
</defs>
</svg>
