<svg width="257" height="47" viewBox="0 0 257 47" fill="none" xmlns="http://www.w3.org/2000/svg">
<g clip-path="url(#clip0_11_673)">
<path d="M5.13336 20.6055H1.5694C0.914472 20.6055 0.383545 21.1364 0.383545 21.7913V44.4119C0.383545 45.0668 0.914472 45.5978 1.5694 45.5978H5.13336C5.78829 45.5978 6.31922 45.0668 6.31922 44.4119V21.7913C6.31922 21.1364 5.78829 20.6055 5.13336 20.6055Z" fill="black"/>
<path d="M41.9899 19.9805C37.2465 19.9805 33.6188 23.2958 32.9302 23.9843C31.1195 21.4341 28.4992 19.9805 24.8715 19.9805C23.334 19.9887 21.8135 20.3023 20.3983 20.9032C18.9832 21.5041 17.7015 22.3802 16.6278 23.4807L15.9393 21.3576C15.8677 21.1347 15.726 20.941 15.5352 20.8054C15.3445 20.6698 15.1149 20.5996 14.8809 20.6053H13.1276C12.8177 20.6163 12.5234 20.7439 12.3035 20.9626C12.0836 21.1813 11.9544 21.4749 11.9418 21.7848V44.4117C11.9514 44.7232 12.0794 45.0193 12.2997 45.2396C12.5201 45.46 12.8162 45.588 13.1276 45.5976H16.6278C16.9393 45.588 17.2354 45.46 17.4557 45.2396C17.6761 45.0193 17.8041 44.7232 17.8137 44.4117V29.1677C18.4138 28.0458 19.3044 27.1059 20.3924 26.4463C21.4805 25.7868 22.7258 25.4319 23.998 25.4188C27.4982 25.4188 29.3089 27.6057 29.3089 31.6032V44.4117C29.3089 44.7262 29.4338 45.0279 29.6562 45.2503C29.8786 45.4726 30.1802 45.5976 30.4947 45.5976H33.7909C34.1024 45.588 34.3985 45.46 34.6188 45.2396C34.8392 45.0193 34.9672 44.7232 34.9768 44.4117V31.4757C35.001 30.4731 34.937 29.4704 34.7855 28.4791C35.2254 28.103 37.4123 25.4188 41.2249 25.4188C44.5975 25.4188 46.4082 27.6694 46.4082 31.6032V44.4117C46.4082 44.7262 46.5331 45.0279 46.7555 45.2503C46.9779 45.4726 47.2796 45.5976 47.5941 45.5976H51.0943C51.4088 45.5976 51.7104 45.4726 51.9328 45.2503C52.1552 45.0279 52.2801 44.7262 52.2801 44.4117V31.8518C52.2801 25.3551 49.6151 19.9805 41.9899 19.9805Z" fill="black"/>
<path d="M68.3602 19.9805C61.3471 19.9805 55.7366 25.9799 55.7366 33.0377C55.7366 40.223 61.3598 46.2224 68.3602 46.2224C75.3606 46.2224 80.9712 40.223 80.9712 33.0377C80.9712 25.9799 75.3543 19.9805 68.3602 19.9805ZM68.3602 40.8478C64.4201 40.8478 61.2961 37.3539 61.2961 33.0377C61.2961 28.8553 64.4201 25.4188 68.3602 25.4188C72.3004 25.4188 75.418 28.8553 75.418 33.0377C75.418 37.3539 72.294 40.8478 68.3602 40.8478Z" fill="black"/>
<path d="M104.968 20.6055H102.093C101.411 20.6055 100.722 20.6055 100.41 21.294L93.6581 36.0408H93.6008L87.104 21.294C87.0084 21.078 86.8491 20.8964 86.6474 20.7733C86.4458 20.6503 86.2114 20.5917 85.9756 20.6055H82.2905C81.3533 20.6055 80.9771 21.243 81.3532 22.0464L92.4085 45.5978C92.5029 45.7975 92.6545 45.9648 92.8441 46.0783C93.0336 46.1918 93.2526 46.2464 93.4732 46.2353H93.7856C94.0063 46.2464 94.2253 46.1918 94.4148 46.0783C94.6044 45.9648 94.756 45.7975 94.8504 45.5978L105.906 22.0464C106.282 21.2303 105.906 20.6055 104.968 20.6055Z" fill="black"/>
<path d="M118.841 19.9803C111.344 19.9803 106.345 26.0434 106.345 33.1012C106.345 40.2865 111.344 46.2222 118.899 46.2222C122.253 46.2919 125.525 45.1868 128.15 43.0981C128.292 43.0208 128.413 42.9088 128.502 42.7726C128.59 42.6363 128.642 42.4801 128.654 42.3183C128.666 42.1565 128.637 41.9943 128.571 41.8465C128.504 41.6986 128.401 41.57 128.271 41.4724L126.524 39.1007C126.02 38.4631 125.587 38.7245 124.835 39.1644C123.186 40.2737 121.261 40.9008 119.275 40.9751C117.456 40.9675 115.707 40.2751 114.375 39.0357C113.043 37.7963 112.228 36.1009 112.09 34.2871H129.087C129.367 34.2824 129.636 34.1755 129.843 33.9864C130.049 33.7973 130.18 33.5392 130.209 33.2606C130.283 32.7003 130.326 32.1362 130.337 31.5711C130.383 30.0445 130.118 28.5245 129.558 27.1037C128.998 25.6828 128.154 24.3909 127.079 23.3065C126.003 22.2221 124.718 21.3679 123.302 20.7961C121.886 20.2243 120.368 19.9467 118.841 19.9803ZM112.402 30.3533C112.591 28.803 113.347 27.3773 114.524 26.3508C115.701 25.3244 117.216 24.7698 118.778 24.7938C120.256 24.8343 121.666 25.4279 122.728 26.4572C123.791 27.4865 124.429 28.8767 124.516 30.3533H112.402Z" fill="black"/>
<path d="M138.58 20.6055H135.016C134.361 20.6055 133.83 21.1364 133.83 21.7913V44.4119C133.83 45.0668 134.361 45.5978 135.016 45.5978H138.58C139.235 45.5978 139.766 45.0668 139.766 44.4119V21.7913C139.766 21.1364 139.235 20.6055 138.58 20.6055Z" fill="black"/>
<path d="M153.447 30.2898C151.012 29.2315 149.45 28.5429 149.45 26.9172C149.45 25.9799 150.138 25.0427 152.261 25.0427C154.028 25.1613 155.758 25.6066 157.362 26.3561C157.647 26.4853 157.969 26.5054 158.267 26.4125C158.566 26.3196 158.82 26.1203 158.981 25.8524L160.11 23.7294C160.268 23.4193 160.304 23.0612 160.21 22.726C160.117 22.3907 159.901 22.1027 159.606 21.9187C157.373 20.6137 154.822 19.9518 152.236 20.006C146.236 20.006 143.68 23.7549 143.68 26.8789C143.68 31.0039 146.925 33.3756 150.801 35.0652C154.238 36.6272 155.609 37.4369 155.609 39.1264C155.609 40.5035 154.423 41.2495 152.548 41.2495C150.511 41.173 148.521 40.6159 146.74 39.6237C146.619 39.5348 146.481 39.4721 146.335 39.4396C146.189 39.4071 146.037 39.4055 145.89 39.4349C145.743 39.4643 145.604 39.5241 145.481 39.6104C145.359 39.6967 145.255 39.8076 145.178 39.9361L143.865 42.378C143.77 42.6011 143.755 42.8504 143.824 43.083C143.893 43.3156 144.04 43.5171 144.241 43.6531C145.554 44.7178 148.302 46.2033 152.485 46.2033C158.044 46.2033 161.729 42.7669 161.729 38.8905C161.755 34.23 158.012 32.2918 153.447 30.2898Z" fill="black"/>
<path d="M180.002 40.1018C179.968 39.953 179.899 39.8147 179.799 39.6989C179.7 39.5831 179.573 39.4933 179.431 39.4374C179.289 39.3815 179.136 39.3611 178.984 39.378C178.833 39.3949 178.687 39.4486 178.561 39.5344C177.373 40.1603 176.073 40.5439 174.736 40.6629C173.544 40.6629 172.734 40.2867 172.734 38.1636V25.795H179.109C179.425 25.795 179.727 25.6703 179.95 25.448C180.174 25.2258 180.3 24.9242 180.302 24.6091V21.7847C180.305 21.6316 180.278 21.4793 180.222 21.3368C180.166 21.1942 180.082 21.0643 179.975 20.9545C179.868 20.8447 179.741 20.7573 179.6 20.6973C179.459 20.6374 179.307 20.6061 179.154 20.6053H172.778V13.5921C172.782 13.2874 172.667 12.9933 172.458 12.772C172.248 12.5506 171.961 12.4195 171.656 12.4062L168.092 12.47C167.781 12.4796 167.485 12.6076 167.264 12.828C167.044 13.0483 166.916 13.3444 166.907 13.6559V20.6053H164.28C164.121 20.5973 163.963 20.6222 163.814 20.6782C163.666 20.7343 163.531 20.8203 163.417 20.931C163.303 21.0417 163.214 21.1746 163.154 21.3215C163.094 21.4684 163.065 21.6261 163.068 21.7847V24.5964C163.07 24.9104 163.196 25.211 163.418 25.4331C163.64 25.6551 163.94 25.7806 164.254 25.7822H166.881V38.7884C166.881 43.2513 168.316 46.2224 173.257 46.2224C175.795 46.0896 178.281 45.4524 180.569 44.3479C180.714 44.2988 180.847 44.2181 180.957 44.1115C181.067 44.005 181.152 43.8753 181.205 43.7319C181.259 43.5885 181.28 43.4349 181.267 43.2824C181.254 43.1298 181.208 42.982 181.13 42.8497L180.002 40.1018Z" fill="black"/>
<path d="M195.094 19.9805C188.08 19.9805 182.476 25.9799 182.476 33.0377C182.476 40.223 188.1 46.2224 195.094 46.2224C202.088 46.2224 207.717 40.223 207.717 33.0377C207.743 25.9799 202.107 19.9805 195.094 19.9805ZM195.094 40.8478C191.16 40.8478 188.036 37.3539 188.036 33.0377C188.036 28.8553 191.16 25.4188 195.094 25.4188C199.027 25.4188 202.158 28.8553 202.158 33.0377C202.183 37.3539 199.059 40.8478 195.094 40.8478Z" fill="black"/>
<path d="M231.919 39.222L230.23 37.8512C230.115 37.7412 229.978 37.6566 229.828 37.603C229.678 37.5494 229.519 37.5278 229.36 37.5399C229.201 37.5519 229.047 37.5972 228.907 37.6728C228.766 37.7484 228.644 37.8526 228.547 37.9787C227.233 39.2539 225.92 40.8478 222.732 40.8478C218.671 40.8478 215.553 37.4113 215.553 33.1014C215.553 28.7915 218.741 25.4507 222.796 25.4507C223.747 25.4816 224.682 25.7081 225.542 26.1161C226.402 26.5242 227.169 27.105 227.794 27.8224C228.298 28.2623 228.732 28.7596 229.484 28.0711L231.543 26.203C231.678 26.1067 231.791 25.984 231.877 25.8425C231.963 25.7009 232.019 25.5435 232.043 25.3796C232.066 25.2157 232.056 25.0488 232.012 24.889C231.969 24.7291 231.894 24.5797 231.792 24.4497C230.744 23.0401 229.376 21.9001 227.801 21.124C226.226 20.3479 224.488 19.9581 222.732 19.9868C219.256 20.0334 215.937 21.4396 213.486 23.9042C211.034 26.3687 209.646 29.6955 209.618 33.1715C209.611 34.8881 209.944 36.5891 210.598 38.1763C211.252 39.7635 212.213 41.2056 213.427 42.4194C214.641 43.6332 216.083 44.5948 217.67 45.2486C219.257 45.9024 220.958 46.2355 222.675 46.2287C224.606 46.2746 226.515 45.8143 228.212 44.8939C229.91 43.9734 231.338 42.6246 232.353 40.9816C232.793 40.3505 232.544 39.7256 231.919 39.222Z" fill="black"/>
<path d="M256.699 40.6565L255.871 40.9945C255.666 41.0714 255.451 41.1145 255.233 41.122C254.506 41.122 254.034 40.4844 252.651 38.3868L252.377 37.9724C251.42 36.557 249.667 33.8474 248.507 31.871C251.544 29.1921 253.827 25.7656 255.131 21.9314C255.204 21.7262 255.225 21.5065 255.194 21.291C255.163 21.0756 255.08 20.8709 254.952 20.6946C254.826 20.515 254.658 20.3685 254.462 20.2675C254.267 20.1666 254.05 20.114 253.83 20.1144H250.643C250.36 20.1201 250.086 20.2125 249.858 20.379C249.63 20.5455 249.459 20.7781 249.367 21.0452C248.077 25.1145 245.321 28.5592 241.634 30.7106V21.007C241.634 20.6434 241.489 20.2948 241.232 20.0377C240.975 19.7806 240.627 19.6362 240.263 19.6362H237.362C236.999 19.6379 236.651 19.7829 236.395 20.0396C236.138 20.2963 235.993 20.644 235.991 21.007V44.0994C235.993 44.4624 236.138 44.8101 236.395 45.0668C236.651 45.3235 236.999 45.4684 237.362 45.4701H240.276C240.637 45.4668 240.983 45.3209 241.237 45.0642C241.491 44.8075 241.634 44.4607 241.634 44.0994V36.6336C242.461 36.2603 243.264 35.8344 244.037 35.3584C244.618 36.302 245.255 37.3221 245.874 38.3167C246.658 39.5918 247.41 40.7649 247.971 41.6894C249.648 44.7497 251.108 45.7889 253.754 45.7889C254.475 45.7899 255.195 45.7194 255.902 45.5785C256.235 45.5107 256.531 45.3219 256.732 45.0487C256.933 44.7754 257.026 44.4371 256.993 44.0994L256.699 40.6565Z" fill="black"/>
<path d="M2.69051 11.7981C1.99287 11.7981 1.4096 11.5923 0.940693 11.1806C0.483224 10.7574 0.25449 10.1741 0.25449 9.43075C0.25449 8.51581 0.660493 7.81817 1.4725 7.33783C2.29594 6.84605 3.59401 6.50295 5.3667 6.30852C5.3667 5.95399 5.31523 5.6166 5.2123 5.29638C5.12081 4.97615 4.94926 4.71882 4.69765 4.5244C4.45748 4.31854 4.10866 4.21561 3.65119 4.21561C3.17085 4.21561 2.7191 4.3071 2.29594 4.49009C1.87278 4.67307 1.49537 4.87894 1.16371 5.10767L0.614747 4.12983C1.00359 3.87822 1.47822 3.63805 2.03862 3.40932C2.61045 3.16915 3.22804 3.04906 3.89136 3.04906C4.90923 3.04906 5.6469 3.36357 6.10437 3.99259C6.56184 4.61017 6.79057 5.43933 6.79057 6.48008V11.5923H5.62403L5.50394 10.5973H5.45248C5.06363 10.9175 4.63475 11.1977 4.16585 11.4379C3.70838 11.6781 3.2166 11.7981 2.69051 11.7981ZM3.10223 10.6659C3.50252 10.6659 3.87993 10.5687 4.23447 10.3743C4.589 10.1799 4.96642 9.90537 5.3667 9.55083V7.2349C3.98286 7.40645 3.01074 7.66378 2.45034 8.00688C1.90138 8.34998 1.6269 8.79029 1.6269 9.32782C1.6269 9.79672 1.76985 10.1398 2.05577 10.3571C2.34169 10.563 2.69051 10.6659 3.10223 10.6659ZM13.102 11.7981C12.7132 11.7981 12.3072 11.7067 11.884 11.5237C11.4723 11.3292 11.0834 11.0662 10.7175 10.7345H10.666L10.5459 11.5923H9.41369V-0.622122H10.8204V2.70596L10.7861 4.21561C11.1635 3.88394 11.5752 3.60946 12.0213 3.39216C12.4787 3.16343 12.9362 3.04906 13.3937 3.04906C14.4801 3.04906 15.3036 3.43219 15.864 4.19845C16.4244 4.96471 16.7046 5.99402 16.7046 7.28636C16.7046 8.23561 16.533 9.04762 16.1899 9.72238C15.8583 10.3971 15.418 10.9118 14.869 11.2663C14.3315 11.6209 13.7425 11.7981 13.102 11.7981ZM12.8619 10.6144C13.5481 10.6144 14.1142 10.3228 14.5602 9.73954C15.0177 9.14483 15.2464 8.33282 15.2464 7.30352C15.2464 6.38858 15.0749 5.65091 14.7318 5.09052C14.4001 4.51868 13.8397 4.23276 13.0506 4.23276C12.696 4.23276 12.3358 4.32997 11.9698 4.5244C11.6038 4.71882 11.2207 4.99902 10.8204 5.365V9.73954C11.1864 10.0598 11.5466 10.2885 11.9012 10.4257C12.2671 10.5515 12.5874 10.6144 12.8619 10.6144ZM18.8959 11.5923V3.25492H20.0624L20.1825 4.76457H20.234C20.5199 4.23848 20.8687 3.82104 21.2804 3.51225C21.6922 3.20346 22.1325 3.04906 22.6014 3.04906C22.933 3.04906 23.2304 3.10625 23.4934 3.22061L23.219 4.45578C23.0817 4.41003 22.9559 4.37572 22.8415 4.35285C22.7272 4.32997 22.5842 4.31854 22.4127 4.31854C22.0581 4.31854 21.6864 4.4615 21.2976 4.74741C20.9202 5.03333 20.5885 5.53083 20.3026 6.2399V11.5923H18.8959ZM24.8432 11.5923V3.25492H26.2499V11.5923H24.8432ZM25.5637 1.53942C25.2892 1.53942 25.0605 1.45936 24.8775 1.29925C24.706 1.12769 24.6202 0.898961 24.6202 0.613042C24.6202 0.338562 24.706 0.115546 24.8775 -0.0560047C25.0605 -0.227555 25.2892 -0.31333 25.5637 -0.31333C25.8382 -0.31333 26.0612 -0.227555 26.2328 -0.0560047C26.4157 0.115546 26.5072 0.338562 26.5072 0.613042C26.5072 0.898961 26.4157 1.12769 26.2328 1.29925C26.0612 1.45936 25.8382 1.53942 25.5637 1.53942ZM29.0649 11.5923V3.25492H30.2315L30.3516 4.45578H30.403C30.8033 4.05549 31.2265 3.72383 31.6725 3.46078C32.1186 3.1863 32.6275 3.04906 33.1993 3.04906C34.0799 3.04906 34.7204 3.32926 35.1207 3.88966C35.5324 4.43862 35.7383 5.24491 35.7383 6.30852V11.5923H34.3316V6.49723C34.3316 5.71953 34.2058 5.15342 33.9541 4.79888C33.7025 4.44434 33.3023 4.26707 32.7533 4.26707C32.3301 4.26707 31.947 4.37572 31.6039 4.59302C31.2722 4.81032 30.8948 5.13054 30.4717 5.5537V11.5923H29.0649ZM41.2944 11.7981C40.2536 11.7981 39.4187 11.4207 38.7897 10.6659C38.1607 9.89965 37.8462 8.8246 37.8462 7.44076C37.8462 6.53726 38.012 5.75956 38.3437 5.10767C38.6868 4.44434 39.1328 3.93541 39.6818 3.58087C40.2422 3.22633 40.8369 3.04906 41.4659 3.04906C41.9463 3.04906 42.3637 3.13484 42.7182 3.30639C43.0728 3.47794 43.433 3.71239 43.799 4.00975L43.7304 2.58588V-0.622122H45.1543V11.5923H43.9877L43.8676 10.6144H43.8162C43.4959 10.9347 43.1185 11.2149 42.6839 11.455C42.2493 11.6838 41.7861 11.7981 41.2944 11.7981ZM41.6032 10.6144C42.3351 10.6144 43.0442 10.2313 43.7304 9.46506V5.10767C43.3758 4.78744 43.0327 4.56443 42.7011 4.43862C42.3809 4.30138 42.0492 4.23276 41.7061 4.23276C41.2601 4.23276 40.8541 4.37 40.4881 4.64448C40.1335 4.90753 39.8476 5.27922 39.6303 5.75956C39.413 6.22847 39.3044 6.78315 39.3044 7.4236C39.3044 8.4186 39.5045 9.20201 39.9048 9.77385C40.3051 10.3342 40.8712 10.6144 41.6032 10.6144ZM51.2046 11.7981C50.5299 11.7981 49.8951 11.6266 49.3004 11.2835C48.7171 10.9404 48.2425 10.4429 47.8766 9.791C47.522 9.13911 47.3447 8.3557 47.3447 7.44076C47.3447 6.50295 47.522 5.7081 47.8766 5.0562C48.2425 4.40431 48.7171 3.90682 49.3004 3.56371C49.8951 3.22061 50.5299 3.04906 51.2046 3.04906C51.8908 3.04906 52.5256 3.22061 53.1088 3.56371C53.6921 3.90682 54.161 4.40431 54.5156 5.0562C54.8815 5.7081 55.0645 6.50295 55.0645 7.44076C55.0645 8.3557 54.8815 9.13911 54.5156 9.791C54.161 10.4429 53.6921 10.9404 53.1088 11.2835C52.5256 11.6266 51.8908 11.7981 51.2046 11.7981ZM51.2046 10.6316C51.9251 10.6316 52.5027 10.34 52.9373 9.75669C53.3833 9.16198 53.6063 8.39001 53.6063 7.44076C53.6063 6.48008 53.3833 5.70238 52.9373 5.10767C52.5027 4.51296 51.9251 4.21561 51.2046 4.21561C50.4956 4.21561 49.918 4.51296 49.472 5.10767C49.0259 5.70238 48.8029 6.48008 48.8029 7.44076C48.8029 8.39001 49.0259 9.16198 49.472 9.75669C49.918 10.34 50.4956 10.6316 51.2046 10.6316ZM60.6946 11.5923V3.25492H61.8611L61.9812 4.45578H62.0327C62.433 4.05549 62.8561 3.72383 63.3022 3.46078C63.7482 3.1863 64.2571 3.04906 64.829 3.04906C65.7096 3.04906 66.3501 3.32926 66.7503 3.88966C67.1621 4.43862 67.3679 5.24491 67.3679 6.30852V11.5923H65.9612V6.49723C65.9612 5.71953 65.8354 5.15342 65.5838 4.79888C65.3322 4.44434 64.9319 4.26707 64.3829 4.26707C63.9598 4.26707 63.5767 4.37572 63.2336 4.59302C62.9019 4.81032 62.5245 5.13054 62.1013 5.5537V11.5923H60.6946ZM73.3186 11.7981C72.6438 11.7981 72.0091 11.6266 71.4144 11.2835C70.8311 10.9404 70.3565 10.4429 69.9905 9.791C69.636 9.13911 69.4587 8.3557 69.4587 7.44076C69.4587 6.50295 69.636 5.7081 69.9905 5.0562C70.3565 4.40431 70.8311 3.90682 71.4144 3.56371C72.0091 3.22061 72.6438 3.04906 73.3186 3.04906C74.0048 3.04906 74.6395 3.22061 75.2228 3.56371C75.8061 3.90682 76.275 4.40431 76.6295 5.0562C76.9955 5.7081 77.1785 6.50295 77.1785 7.44076C77.1785 8.3557 76.9955 9.13911 76.6295 9.791C76.275 10.4429 75.8061 10.9404 75.2228 11.2835C74.6395 11.6266 74.0048 11.7981 73.3186 11.7981ZM73.3186 10.6316C74.0391 10.6316 74.6167 10.34 75.0512 9.75669C75.4973 9.16198 75.7203 8.39001 75.7203 7.44076C75.7203 6.48008 75.4973 5.70238 75.0512 5.10767C74.6167 4.51296 74.0391 4.21561 73.3186 4.21561C72.6095 4.21561 72.032 4.51296 71.5859 5.10767C71.1399 5.70238 70.9169 6.48008 70.9169 7.44076C70.9169 8.39001 71.1399 9.16198 71.5859 9.75669C72.032 10.34 72.6095 10.6316 73.3186 10.6316ZM81.1085 11.5923L78.1063 3.25492H79.5645L81.1428 7.98972C81.2686 8.40144 81.3944 8.81316 81.5202 9.22489C81.6574 9.63661 81.7889 10.0426 81.9147 10.4429H81.9834C82.1092 10.0426 82.235 9.63661 82.3608 9.22489C82.498 8.81316 82.6238 8.40144 82.7382 7.98972L84.3165 3.25492H85.706L82.7553 11.5923H81.1085ZM88.9014 11.7981C88.2038 11.7981 87.6205 11.5923 87.1516 11.1806C86.6941 10.7574 86.4654 10.1741 86.4654 9.43075C86.4654 8.51581 86.8714 7.81817 87.6834 7.33783C88.5069 6.84605 89.8049 6.50295 91.5776 6.30852C91.5776 5.95399 91.5261 5.6166 91.4232 5.29638C91.3317 4.97615 91.1602 4.71882 90.9086 4.5244C90.6684 4.31854 90.3196 4.21561 89.8621 4.21561C89.3818 4.21561 88.93 4.3071 88.5069 4.49009C88.0837 4.67307 87.7063 4.87894 87.3746 5.10767L86.8257 4.12983C87.2145 3.87822 87.6891 3.63805 88.2495 3.40932C88.8214 3.16915 89.4389 3.04906 90.1023 3.04906C91.1201 3.04906 91.8578 3.36357 92.3153 3.99259C92.7727 4.61017 93.0015 5.43933 93.0015 6.48008V11.5923H91.8349L91.7148 10.5973H91.6634C91.2745 10.9175 90.8457 11.1977 90.3768 11.4379C89.9193 11.6781 89.4275 11.7981 88.9014 11.7981ZM89.3131 10.6659C89.7134 10.6659 90.0908 10.5687 90.4454 10.3743C90.7999 10.1799 91.1773 9.90537 91.5776 9.55083V7.2349C90.1938 7.40645 89.2216 7.66378 88.6612 8.00688C88.1123 8.34998 87.8378 8.79029 87.8378 9.32782C87.8378 9.79672 87.9808 10.1398 88.2667 10.3571C88.5526 10.563 88.9014 10.6659 89.3131 10.6659ZM97.8033 11.7981C97.2086 11.7981 96.6425 11.6895 96.1049 11.4722C95.5674 11.2435 95.0985 10.969 94.6982 10.6488L95.4016 9.70523C95.7676 9.99115 96.145 10.2313 96.5338 10.4257C96.9227 10.6087 97.363 10.7002 97.8548 10.7002C98.4037 10.7002 98.8154 10.5744 99.0899 10.3228C99.3644 10.0598 99.5016 9.75097 99.5016 9.39644C99.5016 9.11052 99.4044 8.87035 99.21 8.67592C99.027 8.4815 98.7868 8.32139 98.4895 8.19558C98.2036 8.05834 97.9062 7.93254 97.5974 7.81817C97.2086 7.66949 96.8255 7.50366 96.448 7.32067C96.0706 7.12625 95.7618 6.88036 95.5217 6.58301C95.2815 6.27421 95.1614 5.88537 95.1614 5.41646C95.1614 4.7417 95.413 4.1813 95.9162 3.73526C96.4309 3.2778 97.14 3.04906 98.0435 3.04906C98.5581 3.04906 99.0385 3.14056 99.4845 3.32354C99.9305 3.50653 100.314 3.72955 100.634 3.99259L99.9477 4.88465C99.6618 4.66736 99.3644 4.49009 99.0556 4.35285C98.7468 4.21561 98.4094 4.14699 98.0435 4.14699C97.5174 4.14699 97.1285 4.26707 96.8769 4.50724C96.6367 4.74741 96.5167 5.02761 96.5167 5.34784C96.5167 5.61089 96.6024 5.82818 96.774 5.99973C96.9455 6.15985 97.1686 6.30281 97.443 6.42861C97.7175 6.54298 98.0091 6.66306 98.3179 6.78887C98.7182 6.93754 99.1128 7.10909 99.5016 7.30352C99.8905 7.48651 100.211 7.73811 100.462 8.05834C100.725 8.36713 100.857 8.78457 100.857 9.31066C100.857 9.75669 100.737 10.1684 100.497 10.5458C100.268 10.9232 99.9248 11.2263 99.4673 11.455C99.0213 11.6838 98.4666 11.7981 97.8033 11.7981ZM106.246 15.1091V3.25492H107.413L107.533 4.21561H107.584C107.962 3.89538 108.373 3.6209 108.819 3.39216C109.277 3.16343 109.751 3.04906 110.243 3.04906C111.318 3.04906 112.136 3.43791 112.696 4.21561C113.257 4.98187 113.537 6.01117 113.537 7.30352C113.537 8.24133 113.365 9.04762 113.022 9.72238C112.691 10.3971 112.25 10.9118 111.701 11.2663C111.164 11.6209 110.575 11.7981 109.934 11.7981C109.545 11.7981 109.157 11.7124 108.768 11.5408C108.39 11.3693 108.007 11.1348 107.618 10.8375L107.653 12.2956V15.1091H106.246ZM109.694 10.6144C110.38 10.6144 110.946 10.3228 111.393 9.73954C111.85 9.14483 112.079 8.33282 112.079 7.30352C112.079 6.38858 111.907 5.65091 111.564 5.09052C111.232 4.51868 110.672 4.23276 109.883 4.23276C109.528 4.23276 109.168 4.32997 108.802 4.5244C108.448 4.71882 108.064 4.99902 107.653 5.365V9.73954C108.03 10.0598 108.396 10.2885 108.751 10.4257C109.105 10.5515 109.42 10.6144 109.694 10.6144ZM119.004 11.7981C118.329 11.7981 117.694 11.6266 117.1 11.2835C116.517 10.9404 116.042 10.4429 115.676 9.791C115.321 9.13911 115.144 8.3557 115.144 7.44076C115.144 6.50295 115.321 5.7081 115.676 5.0562C116.042 4.40431 116.517 3.90682 117.1 3.56371C117.694 3.22061 118.329 3.04906 119.004 3.04906C119.69 3.04906 120.325 3.22061 120.908 3.56371C121.491 3.90682 121.96 4.40431 122.315 5.0562C122.681 5.7081 122.864 6.50295 122.864 7.44076C122.864 8.3557 122.681 9.13911 122.315 9.791C121.96 10.4429 121.491 10.9404 120.908 11.2835C120.325 11.6266 119.69 11.7981 119.004 11.7981ZM119.004 10.6316C119.725 10.6316 120.302 10.34 120.737 9.75669C121.183 9.16198 121.406 8.39001 121.406 7.44076C121.406 6.48008 121.183 5.70238 120.737 5.10767C120.302 4.51296 119.725 4.21561 119.004 4.21561C118.295 4.21561 117.717 4.51296 117.271 5.10767C116.825 5.70238 116.602 6.48008 116.602 7.44076C116.602 8.39001 116.825 9.16198 117.271 9.75669C117.717 10.34 118.295 10.6316 119.004 10.6316ZM125.06 11.5923V3.25492H126.226L126.346 4.76457H126.398C126.684 4.23848 127.032 3.82104 127.444 3.51225C127.856 3.20346 128.296 3.04906 128.765 3.04906C129.097 3.04906 129.394 3.10625 129.657 3.22061L129.383 4.45578C129.245 4.41003 129.12 4.37572 129.005 4.35285C128.891 4.32997 128.748 4.31854 128.576 4.31854C128.222 4.31854 127.85 4.4615 127.461 4.74741C127.084 5.03333 126.752 5.53083 126.466 6.2399V11.5923H125.06ZM133.632 11.7981C132.74 11.7981 132.116 11.5408 131.762 11.0262C131.419 10.5115 131.247 9.84247 131.247 9.01903V4.40431H130.012V3.3407L131.316 3.25492L131.487 0.921834H132.671V3.25492H134.918V4.40431H132.671V9.03618C132.671 9.55083 132.762 9.95112 132.945 10.237C133.14 10.5115 133.477 10.6488 133.958 10.6488C134.106 10.6488 134.266 10.6259 134.438 10.5801C134.609 10.523 134.764 10.4715 134.901 10.4257L135.176 11.4894C134.947 11.5694 134.695 11.638 134.421 11.6952C134.158 11.7638 133.895 11.7981 133.632 11.7981ZM138.356 11.7981C137.659 11.7981 137.075 11.5923 136.606 11.1806C136.149 10.7574 135.92 10.1741 135.92 9.43075C135.92 8.51581 136.326 7.81817 137.138 7.33783C137.962 6.84605 139.26 6.50295 141.032 6.30852C141.032 5.95399 140.981 5.6166 140.878 5.29638C140.787 4.97615 140.615 4.71882 140.363 4.5244C140.123 4.31854 139.774 4.21561 139.317 4.21561C138.837 4.21561 138.385 4.3071 137.962 4.49009C137.539 4.67307 137.161 4.87894 136.829 5.10767L136.28 4.12983C136.669 3.87822 137.144 3.63805 137.704 3.40932C138.276 3.16915 138.894 3.04906 139.557 3.04906C140.575 3.04906 141.313 3.36357 141.77 3.99259C142.228 4.61017 142.456 5.43933 142.456 6.48008V11.5923H141.29L141.17 10.5973H141.118C140.729 10.9175 140.3 11.1977 139.832 11.4379C139.374 11.6781 138.882 11.7981 138.356 11.7981ZM138.768 10.6659C139.168 10.6659 139.546 10.5687 139.9 10.3743C140.255 10.1799 140.632 9.90537 141.032 9.55083V7.2349C139.649 7.40645 138.676 7.66378 138.116 8.00688C137.567 8.34998 137.293 8.79029 137.293 9.32782C137.293 9.79672 137.436 10.1398 137.722 10.3571C138.007 10.563 138.356 10.6659 138.768 10.6659ZM147.258 11.7981C146.663 11.7981 146.097 11.6895 145.56 11.4722C145.022 11.2435 144.553 10.969 144.153 10.6488L144.856 9.70523C145.222 9.99115 145.6 10.2313 145.989 10.4257C146.377 10.6087 146.818 10.7002 147.31 10.7002C147.859 10.7002 148.27 10.5744 148.545 10.3228C148.819 10.0598 148.956 9.75097 148.956 9.39644C148.956 9.11052 148.859 8.87035 148.665 8.67592C148.482 8.4815 148.242 8.32139 147.944 8.19558C147.658 8.05834 147.361 7.93254 147.052 7.81817C146.663 7.66949 146.28 7.50366 145.903 7.32067C145.525 7.12625 145.217 6.88036 144.976 6.58301C144.736 6.27421 144.616 5.88537 144.616 5.41646C144.616 4.7417 144.868 4.1813 145.371 3.73526C145.886 3.2778 146.595 3.04906 147.498 3.04906C148.013 3.04906 148.493 3.14056 148.939 3.32354C149.385 3.50653 149.768 3.72955 150.089 3.99259L149.403 4.88465C149.117 4.66736 148.819 4.49009 148.51 4.35285C148.202 4.21561 147.864 4.14699 147.498 4.14699C146.972 4.14699 146.583 4.26707 146.332 4.50724C146.092 4.74741 145.971 5.02761 145.971 5.34784C145.971 5.61089 146.057 5.82818 146.229 5.99973C146.4 6.15985 146.623 6.30281 146.898 6.42861C147.172 6.54298 147.464 6.66306 147.773 6.78887C148.173 6.93754 148.568 7.10909 148.956 7.30352C149.345 7.48651 149.666 7.73811 149.917 8.05834C150.18 8.36713 150.312 8.78457 150.312 9.31066C150.312 9.75669 150.192 10.1684 149.951 10.5458C149.723 10.9232 149.38 11.2263 148.922 11.455C148.476 11.6838 147.921 11.7981 147.258 11.7981Z" fill="black"/>
</g>
<defs>
<clipPath id="clip0_11_673">
<rect width="257" height="46.1146" fill="white" transform="translate(0 0.10791)"/>
</clipPath>
</defs>
</svg>
