<svg width="51" height="56" viewBox="0 0 51 56" fill="none" xmlns="http://www.w3.org/2000/svg">
<g clip-path="url(#clip0_11_674)">
<path d="M48.9732 52.0134C48.8277 50.2311 48.6934 48.7222 48.5479 47.1259C48.4919 46.4917 48.4248 45.8356 48.3688 45.114L48.2569 44.1518C48.1785 43.5285 47.8315 43.2443 47.6189 43.124C47.1935 42.8725 46.757 42.949 46.5667 43.0146L46.0854 43.1459C46.0854 43.1459 46.0518 43.1568 46.0295 43.1677C44.3841 43.7254 43.2872 43.1677 42 41.1121C40.7128 39.0674 39.4256 36.979 38.1832 34.9562C36.7616 32.6491 35.2842 30.2546 33.8179 27.9147C33.6724 27.6851 33.6612 27.5867 33.65 27.5867C33.65 27.5648 33.7171 27.4554 34.0306 27.1712C39.8845 21.8791 44.1714 15.253 46.7794 7.50074C47.0816 6.60415 47.3167 5.72942 46.8018 5.04058C46.2981 4.35173 45.3691 4.29706 44.4512 4.28612C42.985 4.28612 41.5187 4.28612 40.0636 4.28612C37.6347 4.28612 35.1163 4.28612 32.6538 4.25332C30.5159 4.22052 29.9227 6.03558 29.6989 6.72442C28.1654 11.4261 26.0723 15.1765 23.2853 18.1833C21.9197 19.6594 18.9536 21.387 16.4463 22.3492V7.01964C16.4463 6.31986 16.3904 5.45607 15.7747 4.86563C15.1591 4.28612 14.3085 4.23145 13.7376 4.24239H4.07804C3.49601 4.24239 2.66772 4.30799 2.07449 4.8875C1.50365 5.467 1.44769 6.27613 1.44769 6.83376C1.47007 8.67069 1.47007 10.5404 1.45888 12.3555C1.45888 13.4817 1.45888 14.7063 1.45888 15.8325C1.45888 18.3474 1.97376 18.8285 4.61531 18.8285H4.77201C7.42475 18.8285 11.5886 18.8503 14.4204 18.8285V22.3274H4.45861H4.1452C3.56316 22.3274 2.7125 22.3711 2.09688 22.9725C1.64916 23.4098 1.43649 24.044 1.44769 24.8969C1.49246 28.0678 1.48126 31.4136 1.44769 34.5517C1.44769 35.317 1.66035 35.9075 2.08569 36.323C2.5446 36.7603 3.1826 36.9572 4.02208 36.9462H14.4316V40.3139C13.178 40.3139 11.4542 40.3139 10.0999 40.3139C8.16349 40.3139 5.83535 40.3139 4.17878 40.2921C3.57436 40.2811 2.7013 40.3249 2.09688 40.9153C1.64916 41.3417 1.43649 41.965 1.44769 42.8069C1.48126 45.7591 1.49246 48.8534 1.44769 52.3195C1.44769 53.1833 1.64916 53.8175 2.10807 54.2439C2.67892 54.7906 3.44004 54.8781 4.02208 54.8781C4.06685 54.8781 4.11162 54.8781 4.15639 54.8781C6.45096 54.8344 8.16349 54.8344 9.9096 54.8453C10.6931 54.8453 11.8796 54.8453 12.9205 54.8453C15.9203 54.8453 16.368 54.408 16.368 51.5214C16.368 51.4886 16.368 51.4667 16.368 51.084V36.9353H21.8526L22.1548 37.3508L29.9115 50.1765H29.9227C31.389 52.6257 33.0456 54.2986 35.8774 54.8453C37.2094 55.0968 37.8362 55.1296 39.4704 55.1296C41.8992 55.1296 44.5856 54.8563 47.2943 54.3096C48.8277 54.0034 49.0628 52.8881 48.9956 52.0025L48.9732 52.0134ZM4.7832 16.9478H4.22355C3.29453 16.9478 3.39527 16.1168 3.39527 16.1168C3.39527 15.0015 3.39527 13.4708 3.39527 12.3555C3.39527 10.5404 3.38408 8.65976 3.38408 6.8119C3.38408 6.06838 4.08924 6.13398 4.08924 6.13398H13.76C13.76 6.13398 14.4316 6.07931 14.4316 6.57135V16.9478C11.5997 16.9478 7.43595 16.9478 4.7832 16.9478ZM4.01089 35.0656C3.36169 35.0656 3.38408 34.5626 3.38408 34.5626C3.40646 31.4026 3.42885 28.0459 3.38408 24.8641C3.38408 24.8641 3.26095 24.1971 4.1452 24.1971H14.4316V35.0546H4.01089V35.0656ZM13.5697 52.9756C13.5697 52.9756 13.5361 52.9756 13.5249 52.9756C12.484 52.9756 10.6931 52.9756 9.9208 52.9756C8.16349 52.9756 6.43977 53.0084 4.12282 53.0084C3.38408 53.0084 3.38408 52.3523 3.38408 52.3523C3.41766 48.8644 3.41766 45.7591 3.38408 42.796C3.38408 42.796 3.41766 42.1837 4.1452 42.1837C5.81296 42.1837 8.16349 42.2165 10.1111 42.2055C11.4654 42.2055 13.178 42.2055 14.4316 42.2055V51.8931C14.4316 51.8931 14.4316 52.2649 14.4316 52.2977C14.4316 52.9975 13.5585 52.9865 13.5585 52.9865L13.5697 52.9756ZM47.0592 52.4289C47.0592 52.4289 46.9697 52.4617 46.8913 52.4726C42.6827 53.3255 39.2577 53.577 36.2468 52.9975C33.9746 52.5601 32.5867 51.248 31.5793 49.3017L23.3524 35.5685C23.1957 35.2296 22.8487 35.0109 22.4794 35.0109H16.368V24.208C19.0431 23.4426 22.7928 21.5073 24.7292 19.4189C27.6953 16.2043 29.9339 12.2352 31.5457 7.27113C31.9039 6.17772 32.2173 6.10118 32.6314 6.11212C35.1163 6.15585 37.6347 6.14492 40.0748 6.14492C41.5299 6.14492 42.9962 6.14492 44.4512 6.14492C44.7982 6.14492 45.0221 6.16679 45.1564 6.17772C45.134 6.31986 45.0669 6.53854 44.9549 6.88844C42.4477 14.3345 38.3399 20.6872 32.7322 25.7716C31.9375 26.4932 31.2547 27.4226 32.1837 28.8987C33.65 31.2277 35.1163 33.6113 36.5378 35.9184C37.7802 37.9412 39.0786 40.0406 40.3658 42.0852C41.0598 43.1896 42.873 46.0653 46.4324 45.0046L46.4548 45.2999C46.522 45.9887 46.5779 46.6448 46.6339 47.2789C46.7794 48.8753 46.9137 50.3733 47.0592 52.1446C47.0704 52.2867 47.0592 52.3633 47.0592 52.407V52.4289Z" fill="black"/>
</g>
<defs>
<clipPath id="clip0_11_674">
<rect width="47.5367" height="50.9091" fill="white" transform="translate(1.44763 4.24219)"/>
</clipPath>
</defs>
</svg>
